<?xml version="1.0" encoding="UTF-8"?> <svg xmlns="http://www.w3.org/2000/svg" width="104" height="77" fill="none"><path d="M2.973 2h16.65a2 2 0 011.885 1.33l4.219 11.876m0 0l15.333 43.16a2 2 0 002.4 1.263l56.081-14.974a2 2 0 001.484-1.933V17.206a2 2 0 00-2-2H25.726z" stroke="#186FD4" stroke-width="4" stroke-linecap="round" stroke-linejoin="round"></path><path d="M55.727 41.899l.001-.001c1.45-1.61 3.415-2.514 5.465-2.514s4.016.904 5.465 2.514l.001.001M49 31c1.004 1.073 2.365 1.677 3.784 1.677 1.42 0 2.78-.603 3.784-1.676m9.25-.001c1.004 1.073 2.365 1.677 3.784 1.677 1.42 0 2.78-.603 3.784-1.676" stroke="#186FD4" stroke-width="4" stroke-linecap="round" stroke-linejoin="round"></path><path d="M26.693 71a5.333 5.333 0 1010.666 0 5.333 5.333 0 00-10.666 0zm1.701 1h3.632v-2h-3.632v2zm41.51-1a5.333 5.333 0 1010.666 0 5.333 5.333 0 00-10.666 0zm1.702 1h3.631v-2h-3.631v2z" fill="#186FD4"></path></svg> 