<svg width="24" height="18" viewBox="0 0 24 18" fill="none" xmlns="http://www.w3.org/2000/svg">
<path d="M0.5 0.759277H3.1407C3.98715 0.759277 4.74194 1.29213 5.0253 2.08975L5.60526 3.72224M5.60526 3.72224L8.56647 12.0575C8.91539 13.0396 9.96005 13.5892 10.967 13.3203L21.016 10.637C21.8912 10.4033 22.5 9.61058 22.5 8.70472V5.72224C22.5 4.61767 21.6046 3.72224 20.5 3.72224H5.60526Z" stroke="white" stroke-width="1.3"/>
<path d="M5.41843 16.2408C5.41843 17.1244 6.13477 17.8408 7.01843 17.8408C7.90208 17.8408 8.61843 17.1244 8.61843 16.2408C8.61843 15.3571 7.90208 14.6408 7.01843 14.6408C6.13477 14.6408 5.41843 15.3571 5.41843 16.2408ZM6.20361 16.5408H7.01843V15.9408H6.20361V16.5408Z" fill="white"/>
<path d="M16.0112 16.2408C16.0112 17.1244 16.7275 17.8408 17.6112 17.8408C18.4949 17.8408 19.2112 17.1244 19.2112 16.2408C19.2112 15.3571 18.4949 14.6408 17.6112 14.6408C16.7275 14.6408 16.0112 15.3571 16.0112 16.2408ZM16.7964 16.5408H17.6112V15.9408H16.7964V16.5408Z" fill="white"/>
</svg>
