<svg width="33" height="26" fill="none" xmlns="http://www.w3.org/2000/svg"><path d="M16.5 8.334V23.5m0-15.166c-.422-1.74-1.149-3.226-2.085-4.267-.937-1.04-2.04-1.586-3.165-1.566a2.917 2.917 0 000 5.833m5.25 0c.422-1.74 1.149-3.226 2.085-4.267.937-1.04 2.04-1.586 3.165-1.566a2.917 2.917 0 010 5.833M24.667 13v8.167a2.333 2.333 0 01-2.334 2.333H10.667a2.333 2.333 0 01-2.334-2.333V13M6 9.5a1.167 1.167 0 011.167-1.166h18.666A1.167 1.167 0 0127 9.5v2.334A1.167 1.167 0 0125.833 13H7.167A1.167 1.167 0 016 11.834V9.5z" stroke="#16191E" stroke-width="1.6" stroke-miterlimit="10"/></svg>