<?xml version="1.0" encoding="UTF-8"?> <svg xmlns="http://www.w3.org/2000/svg" width="77" height="14" fill="none"><path fill-rule="evenodd" clip-rule="evenodd" d="M22.798 10.377a3.352 3.352 0 01-1.884-.568 3.297 3.297 0 01-1.248-1.53 3.356 3.356 0 01-.198-1.965 3.564 3.564 0 01.92-1.748 3.355 3.355 0 013.702-.743c.618.263 1.15.694 1.533 1.245a3.406 3.406 0 01-.416 4.282 3.28 3.28 0 01-2.41 1.027zm0-10.377a7.002 7.002 0 00-5.917 3.217 6.98 6.98 0 00-1.092 3.293 6.775 6.775 0 00.635 3.408 7 7 0 003.74 3.534 7.025 7.025 0 005.152.027 6.844 6.844 0 002.826-2.031 5.34 5.34 0 01-1.906 2.031v.372h3.548V6.947a6.965 6.965 0 00-2.055-4.912A7 7 0 0022.798 0zm33.597 10.443h-4.6V8.17h4.513c.57 0 1.226.524 1.226 1.136 0 .437-.35 1.136-1.139 1.136zm-4.621-6.904h3.877c.416 0 1.117.437 1.117 1.114 0 .546-.438 1.136-1.227 1.136h-3.745l-.022-2.25zm7.775 3.037c.832-1.267.92-3.015.154-4.326A4.131 4.131 0 0058.124.7 4.566 4.566 0 0056 .11h-7.753v13.762h8.673c2.716 0 4.227-2.25 4.227-4.128 0-1.792-1.03-2.71-1.599-3.168zM44.743 5.178c1.161 3.124 1.227 5.986 1.227 8.695h-3.592c0-2.207-.088-4.217-.548-6.03-.613-2.425-1.774-4.195-2.847-4.195s-2.234 1.77-2.847 4.195c-.46 1.813-.548 3.757-.548 6.03h-3.592c0-2.469.066-5.55 1.227-8.695C34.318 2.272 36.333 0 38.983 0s4.665 2.272 5.76 5.178zM14.41.109v1.442a7.138 7.138 0 01-.679 3.015 6.859 6.859 0 01-1.905 2.425 6.86 6.86 0 011.905 2.425 7.14 7.14 0 01.68 3.014v1.443h-3.593v-1.814a3.357 3.357 0 00-2.082-3.108 3.38 3.38 0 00-3.676.73 3.365 3.365 0 00-.988 2.378v1.813H.458v-1.441a7.138 7.138 0 01.679-3.015A6.859 6.859 0 013.042 6.99a6.859 6.859 0 01-1.905-2.425 7.138 7.138 0 01-.68-3.015V.11H4.05v1.814A3.357 3.357 0 005.037 4.3a3.374 3.374 0 003.676.73 3.374 3.374 0 001.827-1.82c.169-.408.256-.846.256-1.287V.109h3.614zm55.062 10.268a3.353 3.353 0 01-1.884-.568 3.296 3.296 0 01-1.248-1.53 3.356 3.356 0 01-.197-1.965 3.563 3.563 0 01.92-1.748 3.355 3.355 0 013.7-.743c.62.263 1.15.694 1.534 1.245a3.406 3.406 0 01-.416 4.282 3.28 3.28 0 01-2.41 1.027zm6.986-3.43a6.871 6.871 0 00-1.664-4.478A7 7 0 0068.21.127a7.008 7.008 0 00-3.27 1.541 6.982 6.982 0 00-2.063 2.964 7.04 7.04 0 00.022 4.784 6.941 6.941 0 003.088 3.648 7.005 7.005 0 008.849-1.55 5.338 5.338 0 01-1.906 2.03v.372h3.526V6.947z" fill="#000"></path></svg> 