<?xml version="1.0" encoding="UTF-8"?> <svg xmlns="http://www.w3.org/2000/svg" width="59" height="16" fill="none"><path fill-rule="evenodd" clip-rule="evenodd" d="M14.681 15.527V6.584h-.394l-2.834 8.943H8.078L5.255 6.584h-.393v8.943H.03V.474h4.84a2.813 2.813 0 012.7 1.983l1.988 6.957h.419l1.992-6.957A2.816 2.816 0 0114.678.474h4.84v15.053h-4.84.003zm18.51 0V6.662h-.382l-3.3 7.427a2.444 2.444 0 01-2.231 1.438h-4.23V.474h4.871v8.864h.4L31.66 1.9l.026-.057v-.005A2.443 2.443 0 0133.884.474h4.229v15.053H33.19zm19.201-4.42H46.59v4.42h-4.925v-7.97H58.03a6.039 6.039 0 01-5.638 3.55z" fill="#000"></path><path opacity=".55" fill-rule="evenodd" clip-rule="evenodd" d="M58.34 5.787h-9.36c-4.066 0-7.446-2.455-8.158-5.313H52.83c3.11 0 5.628 2.154 5.628 4.458 0 .289-.04.576-.118.855z" fill="#000"></path></svg> 