<?xml version="1.0" encoding="UTF-8"?> <svg xmlns="http://www.w3.org/2000/svg" width="77" height="10" fill="none"><path d="M7.632 9.702V2.78h4.152V.259H.458v2.52h4.15v6.923h3.024zM16.017.26h-3.023v9.443h3.023V.26zm2.213 0v9.443h2.778V4.484l5.187 5.218h2.571V.26h-2.774v5.178L20.928.26H18.23zm16.484 5.87l3.481 3.571h3.897l-4.86-4.92L41.907.259h-3.668l-3.525 3.55h-.805V.26h-2.925v9.443h2.925v-3.57h.805zM48.1 0c-3.932 0-6.283 2.183-6.283 5 0 2.818 2.35 5 6.283 5 3.915 0 6.265-2.182 6.265-5 0-2.817-2.35-5-6.265-5zm0 7.698c-1.953 0-3.208-1.15-3.208-2.698 0-1.547 1.255-2.679 3.208-2.679 1.935 0 3.208 1.132 3.208 2.679 0 1.548-1.273 2.698-3.208 2.698zM65.456.258h-9.694v9.444h2.916V6.41h6.354V4.326h-6.354V2.66h6.778V.259zm11.001 0h-9.693v9.444h2.916V6.41h6.353V4.326H69.68V2.66h6.777V.259z" fill="#000"></path></svg> 