<?xml version="1.0" encoding="UTF-8"?> <svg xmlns="http://www.w3.org/2000/svg" width="37" height="24" fill="none"><path fill-rule="evenodd" clip-rule="evenodd" d="M13.872 12a11.037 11.037 0 004.427 8.84A11.07 11.07 0 01.57 12 11.067 11.067 0 0112.651.978a11.07 11.07 0 015.648 2.182A11.04 11.04 0 0013.872 12z" fill="#000"></path><path opacity=".3" fill-rule="evenodd" clip-rule="evenodd" d="M24.94 23.069a11.01 11.01 0 01-6.64-2.229 11.039 11.039 0 000-17.68 11.064 11.064 0 116.64 19.909z" fill="#000"></path><path opacity=".65" fill-rule="evenodd" clip-rule="evenodd" d="M13.872 12A11.038 11.038 0 0118.3 3.16a11.04 11.04 0 010 17.68A11.04 11.04 0 0113.872 12z" fill="#000"></path></svg> 