<svg width="39" height="39" viewBox="0 0 39 39" fill="none" xmlns="http://www.w3.org/2000/svg">
<path d="M13.6667 25.3333L25.3333 13.6667M15.6111 14.6389C15.6111 15.1758 15.1758 15.6111 14.6389 15.6111C14.1019 15.6111 13.6667 15.1758 13.6667 14.6389C13.6667 14.1019 14.1019 13.6667 14.6389 13.6667C15.1758 13.6667 15.6111 14.1019 15.6111 14.6389ZM25.3333 24.3611C25.3333 24.8981 24.8981 25.3333 24.3611 25.3333C23.8242 25.3333 23.3889 24.8981 23.3889 24.3611C23.3889 23.8242 23.8242 23.3889 24.3611 23.3889C24.8981 23.3889 25.3333 23.8242 25.3333 24.3611ZM2 19.5C2 21.7981 2.45265 24.0738 3.33211 26.197C4.21157 28.3202 5.50061 30.2493 7.12563 31.8744C8.75066 33.4994 10.6798 34.7884 12.803 35.6679C14.9262 36.5474 17.2019 37 19.5 37C21.7981 37 24.0738 36.5474 26.197 35.6679C28.3202 34.7884 30.2493 33.4994 31.8744 31.8744C33.4994 30.2493 34.7884 28.3202 35.6679 26.197C36.5474 24.0738 37 21.7981 37 19.5C37 17.2019 36.5474 14.9262 35.6679 12.803C34.7884 10.6798 33.4994 8.75066 31.8744 7.12563C30.2493 5.50061 28.3202 4.21157 26.197 3.33211C24.0738 2.45265 21.7981 2 19.5 2C17.2019 2 14.9262 2.45265 12.803 3.33211C10.6798 4.21157 8.75066 5.50061 7.12563 7.12563C5.50061 8.75066 4.21157 10.6798 3.33211 12.803C2.45265 14.9262 2 17.2019 2 19.5Z" stroke="#117FE3" stroke-width="2.4" stroke-linecap="round" stroke-linejoin="round"/>
</svg>
