<svg width="50" height="39" viewBox="0 0 50 39" fill="none" xmlns="http://www.w3.org/2000/svg">
<path d="M2 14.5H47.9375M12.2083 27H12.2339M22.4167 27H27.5208M2 9.5C2 7.51088 2.80664 5.60322 4.24246 4.1967C5.67829 2.79018 7.62569 2 9.65625 2H40.2812C42.3118 2 44.2592 2.79018 45.695 4.1967C47.1309 5.60322 47.9375 7.51088 47.9375 9.5V29.5C47.9375 31.4891 47.1309 33.3968 45.695 34.8033C44.2592 36.2098 42.3118 37 40.2812 37H9.65625C7.62569 37 5.67829 36.2098 4.24246 34.8033C2.80664 33.3968 2 31.4891 2 29.5V9.5Z" stroke="#117FE3" stroke-width="2.4" stroke-linecap="round" stroke-linejoin="round"/>
</svg>
