<svg width="42" height="39" viewBox="0 0 42 39" fill="none" xmlns="http://www.w3.org/2000/svg">
<path d="M23.2085 4.1875H40.7085M23.2085 12.9375H34.146M23.2085 26.0625H40.7085M23.2085 34.8125H34.146M1.3335 4.1875C1.3335 3.60734 1.56396 3.05094 1.9742 2.6407C2.38444 2.23047 2.94084 2 3.521 2H12.271C12.8512 2 13.4076 2.23047 13.8178 2.6407C14.228 3.05094 14.4585 3.60734 14.4585 4.1875V12.9375C14.4585 13.5177 14.228 14.0741 13.8178 14.4843C13.4076 14.8945 12.8512 15.125 12.271 15.125H3.521C2.94084 15.125 2.38444 14.8945 1.9742 14.4843C1.56396 14.0741 1.3335 13.5177 1.3335 12.9375V4.1875ZM1.3335 26.0625C1.3335 25.4823 1.56396 24.9259 1.9742 24.5157C2.38444 24.1055 2.94084 23.875 3.521 23.875H12.271C12.8512 23.875 13.4076 24.1055 13.8178 24.5157C14.228 24.9259 14.4585 25.4823 14.4585 26.0625V34.8125C14.4585 35.3927 14.228 35.9491 13.8178 36.3593C13.4076 36.7695 12.8512 37 12.271 37H3.521C2.94084 37 2.38444 36.7695 1.9742 36.3593C1.56396 35.9491 1.3335 35.3927 1.3335 34.8125V26.0625Z" stroke="#117FE3" stroke-width="2.4" stroke-linecap="round" stroke-linejoin="round"/>
</svg>
