<?xml version="1.0" encoding="UTF-8"?> <svg xmlns="http://www.w3.org/2000/svg" width="48" height="16" fill="none"><path fill-rule="evenodd" clip-rule="evenodd" d="M43.947 15.568s-.346-2.113-.462-2.642h-5.006c-.138.414-.83 2.642-.83 2.642h-4.083l5.79-13.81a1.91 1.91 0 012.03-1.265h3.022l3.16 15.075h-3.62zM41.94 5.854l-.277-1.289c-.185.576-.532 1.473-.508 1.45 0 0-1.246 3.337-1.545 4.21h3.23c-.16-.76-.9-4.37-.9-4.37zm-8.397-1.886a6.532 6.532 0 00-2.906-.575c-1.547 0-2.239.643-2.262 1.288 0 .714.831 1.173 2.214 1.86 2.238 1.058 3.276 2.37 3.253 4.094-.023 3.106-2.676 5.13-6.783 5.13a11.895 11.895 0 01-4.339-.804l.532-3.382.53.253a7.867 7.867 0 003.645.805c1.131 0 2.33-.46 2.354-1.473 0-.666-.507-1.15-2.03-1.886-1.476-.713-3.438-1.91-3.415-4.073.023-2.922 2.722-4.97 6.575-4.97a9.91 9.91 0 013.506.62l-.53 3.268-.344-.155zm-17.163 11.6L18.825.493h3.896l-2.444 15.075H16.38zm-9.386 0L3.728 3.293c.53.267 1.033.587 1.5.954a16.33 16.33 0 013.59 4.112l.065.325.415 2.072L13.127.492h4.13L11.12 15.568H6.995z" fill="#000"></path><path opacity=".35" fill-rule="evenodd" clip-rule="evenodd" d="M5.224 4.248a8.87 8.87 0 00-1.5-.955l-.222-.835A15.617 15.617 0 000 .983V.516h5.99a1.57 1.57 0 011.53 1.24l1.297 6.6a16.332 16.332 0 00-3.593-4.108z" fill="#000"></path></svg> 